<?xml version="1.0" standalone="no"?>
<!DOCTYPE svg PUBLIC "-//W3C//DTD SVG 20010904//EN"
 "http://www.w3.org/TR/2001/REC-SVG-20010904/DTD/svg10.dtd">
<svg version="1.0" xmlns="http://www.w3.org/2000/svg"
 width="631.000000pt" height="631.000000pt" viewBox="0 0 631.000000 631.000000"
 preserveAspectRatio="xMidYMid meet">
<metadata>
Created by potrace 1.11, written by Peter Selinger 2001-2013
</metadata>
<g transform="translate(0.000000,631.000000) scale(0.100000,-0.100000)"
fill="#000000" stroke="none">
<path d="M1650 5550 c-8 -5 -44 -22 -80 -38 -36 -17 -119 -56 -185 -87 -178
-85 -320 -152 -415 -197 -47 -22 -167 -80 -267 -128 -99 -49 -192 -91 -205
-95 -12 -5 -40 -19 -60 -31 -21 -13 -41 -24 -44 -24 -4 0 -26 -10 -50 -21
l-43 -22 -1 -211 c-1 -116 -3 -658 -3 -1204 l-2 -994 75 -73 c41 -40 91 -88
110 -105 19 -18 96 -90 170 -160 144 -136 143 -135 354 -335 76 -71 157 -148
181 -170 23 -22 102 -96 175 -165 73 -69 154 -145 180 -170 26 -25 70 -66 97
-92 l50 -47 54 52 c46 44 258 244 399 377 241 227 321 302 363 342 27 26 108
102 180 170 136 129 172 163 305 291 44 42 83 77 86 77 3 0 23 -17 46 -39 22
-21 77 -71 122 -112 45 -41 94 -85 108 -99 15 -14 49 -45 76 -70 27 -25 97
-88 154 -141 58 -53 119 -108 135 -123 17 -15 71 -65 120 -111 50 -46 100 -92
112 -103 21 -18 156 -142 243 -222 21 -19 78 -72 126 -116 49 -45 104 -95 121
-110 73 -67 65 -66 114 -20 24 23 98 90 164 151 66 60 125 114 131 120 6 5 50
46 99 90 48 44 102 94 120 110 17 17 76 71 130 120 54 50 110 101 125 115 60
56 214 196 233 212 11 10 70 64 131 120 61 57 135 126 165 153 31 28 62 56 70
64 14 12 16 160 16 1222 l0 1208 -55 25 c-30 14 -89 41 -130 59 -41 19 -104
48 -140 65 -36 16 -182 84 -325 150 -143 66 -294 136 -335 155 -264 122 -430
197 -437 197 -5 0 -9 -684 -8 -1521 0 -836 -3 -1523 -6 -1524 -5 -4 -125 118
-547 554 -52 53 -210 215 -352 361 -142 146 -317 326 -389 400 l-131 135 -77
-81 c-43 -45 -134 -141 -203 -214 -69 -72 -147 -155 -175 -184 -55 -58 -320
-337 -375 -395 -19 -20 -105 -111 -190 -200 -85 -90 -173 -182 -195 -206 -120
-127 -153 -161 -166 -172 -12 -10 -14 202 -14 1518 1 1060 -2 1529 -10 1528
-5 0 -17 -4 -25 -9z"/>
</g>
</svg>
